<svg width="36" height="52" viewBox="0 0 36 52" fill="none" xmlns="http://www.w3.org/2000/svg">
  <path d="M6.15454 51.4084L17.6848 45.5094L29.215 51.4084V24.7496H6.15454V51.4084Z" fill="#E8A87C"/>
  <path d="M0 17.6768C0 7.91414 7.91422 -0.000160217 17.677 -0.000160217C27.4397 -0.000160217 35.3539 7.91414 35.3539 17.6768C35.3539 27.4395 27.4397 35.3538 17.677 35.3538C7.91422 35.3538 0 27.4395 0 17.6768Z" fill="#CD7F32"/>
  <path d="M3.81006 17.6769C3.81006 10.0439 9.9975 3.85645 17.6304 3.85645C25.2631 3.85645 31.4508 10.0439 31.4508 17.6769C31.4508 25.3098 25.2631 31.4973 17.6304 31.4973C9.9975 31.4973 3.81006 25.3098 3.81006 17.6769Z" fill="#E8A87C"/>
  <polygon fill="#CD7F32" points="17.677,10 19.848,15.223 25.485,15.223 20.882,18.452 22.054,23.777 17.677,20.457 13.301,23.777 14.472,18.452 9.869,15.223 15.507,15.223 "/>
</svg>